<mxfile host="app.diagrams.net" modified="2023-08-21T17:28:53.573Z" agent="Mozilla/5.0 (Macintosh; Intel Mac OS X 10_15_7) AppleWebKit/537.36 (KHTML, like Gecko) Chrome/116.0.0.0 Safari/537.36" etag="cgextITbIKgya3eZAfOx" version="21.6.8" type="device">
  <diagram name="Page-1" id="hzh5KY-9KqNGddiR5Ho3">
    <mxGraphModel dx="1503" dy="925" grid="1" gridSize="10" guides="1" tooltips="1" connect="1" arrows="1" fold="1" page="1" pageScale="1" pageWidth="850" pageHeight="1100" math="0" shadow="0">
      <root>
        <mxCell id="0" />
        <mxCell id="1" parent="0" />
        <mxCell id="XX1jFLuHzX-e60W1TIha-5" style="edgeStyle=orthogonalEdgeStyle;rounded=0;orthogonalLoop=1;jettySize=auto;html=1;exitX=0.5;exitY=1;exitDx=0;exitDy=0;entryX=0.5;entryY=0;entryDx=0;entryDy=0;fillColor=#f8cecc;strokeColor=#b85450;" edge="1" parent="1" source="XX1jFLuHzX-e60W1TIha-1" target="XX1jFLuHzX-e60W1TIha-2">
          <mxGeometry relative="1" as="geometry" />
        </mxCell>
        <mxCell id="XX1jFLuHzX-e60W1TIha-9" style="edgeStyle=orthogonalEdgeStyle;rounded=0;orthogonalLoop=1;jettySize=auto;html=1;exitX=0.5;exitY=1;exitDx=0;exitDy=0;entryX=0.5;entryY=0;entryDx=0;entryDy=0;fillColor=#d5e8d4;strokeColor=#82b366;" edge="1" parent="1" source="XX1jFLuHzX-e60W1TIha-1" target="XX1jFLuHzX-e60W1TIha-6">
          <mxGeometry relative="1" as="geometry" />
        </mxCell>
        <mxCell id="XX1jFLuHzX-e60W1TIha-1" value="app-set" style="rounded=0;whiteSpace=wrap;html=1;fillColor=#dae8fc;strokeColor=#6c8ebf;" vertex="1" parent="1">
          <mxGeometry x="418" y="60" width="120" height="60" as="geometry" />
        </mxCell>
        <mxCell id="XX1jFLuHzX-e60W1TIha-2" value="apps&lt;br&gt;(a chart of subcharts)" style="rounded=0;whiteSpace=wrap;html=1;fillColor=#f8cecc;strokeColor=#b85450;" vertex="1" parent="1">
          <mxGeometry x="298" y="190" width="120" height="60" as="geometry" />
        </mxCell>
        <mxCell id="XX1jFLuHzX-e60W1TIha-12" style="edgeStyle=orthogonalEdgeStyle;rounded=0;orthogonalLoop=1;jettySize=auto;html=1;exitX=0.5;exitY=1;exitDx=0;exitDy=0;entryX=0.5;entryY=0;entryDx=0;entryDy=0;fillColor=#e1d5e7;strokeColor=#9673a6;" edge="1" parent="1" source="XX1jFLuHzX-e60W1TIha-3" target="XX1jFLuHzX-e60W1TIha-10">
          <mxGeometry relative="1" as="geometry" />
        </mxCell>
        <mxCell id="XX1jFLuHzX-e60W1TIha-3" value="nginx-1 Argo App" style="rounded=0;whiteSpace=wrap;html=1;fillColor=#e1d5e7;strokeColor=#9673a6;" vertex="1" parent="1">
          <mxGeometry x="298" y="250" width="60" height="60" as="geometry" />
        </mxCell>
        <mxCell id="XX1jFLuHzX-e60W1TIha-13" style="edgeStyle=orthogonalEdgeStyle;rounded=0;orthogonalLoop=1;jettySize=auto;html=1;exitX=0.5;exitY=1;exitDx=0;exitDy=0;entryX=0.5;entryY=0;entryDx=0;entryDy=0;fillColor=#ffe6cc;strokeColor=#d79b00;" edge="1" parent="1" source="XX1jFLuHzX-e60W1TIha-4" target="XX1jFLuHzX-e60W1TIha-11">
          <mxGeometry relative="1" as="geometry" />
        </mxCell>
        <mxCell id="XX1jFLuHzX-e60W1TIha-4" value="nginx-2 Argo App" style="rounded=0;whiteSpace=wrap;html=1;fillColor=#ffe6cc;strokeColor=#d79b00;" vertex="1" parent="1">
          <mxGeometry x="358" y="250" width="60" height="60" as="geometry" />
        </mxCell>
        <mxCell id="XX1jFLuHzX-e60W1TIha-6" value="config" style="rounded=0;whiteSpace=wrap;html=1;fillColor=#d5e8d4;strokeColor=#82b366;" vertex="1" parent="1">
          <mxGeometry x="538" y="190" width="120" height="60" as="geometry" />
        </mxCell>
        <mxCell id="XX1jFLuHzX-e60W1TIha-7" value="dev.yaml" style="rounded=0;whiteSpace=wrap;html=1;" vertex="1" parent="1">
          <mxGeometry x="538" y="250" width="60" height="60" as="geometry" />
        </mxCell>
        <mxCell id="XX1jFLuHzX-e60W1TIha-8" value="prod.yaml" style="rounded=0;whiteSpace=wrap;html=1;" vertex="1" parent="1">
          <mxGeometry x="598" y="250" width="60" height="60" as="geometry" />
        </mxCell>
        <mxCell id="XX1jFLuHzX-e60W1TIha-10" value="charts/nginx-1" style="rounded=0;whiteSpace=wrap;html=1;fillColor=#e1d5e7;strokeColor=#9673a6;" vertex="1" parent="1">
          <mxGeometry x="193" y="410" width="120" height="60" as="geometry" />
        </mxCell>
        <mxCell id="XX1jFLuHzX-e60W1TIha-11" value="charts/nginx-2" style="rounded=0;whiteSpace=wrap;html=1;fillColor=#ffe6cc;strokeColor=#d79b00;" vertex="1" parent="1">
          <mxGeometry x="393" y="410" width="120" height="60" as="geometry" />
        </mxCell>
      </root>
    </mxGraphModel>
  </diagram>
</mxfile>
